# xmcd
#
# Track frame offsets:
# 150
# 14231
# 35914
# 60608
# 81344
# 99695
# 116934
# 132440
# 153848
# 172848
# 182879
# 201912
# 215850
# 237080
# 252388
#
# Disc length: 3589 seconds
#
# Revision: 1
# Processed by: cddbd v1.5.1PL0 Copyright (c) Steve Scherf et al.
# Submitted via: CedeCatalogueitor 2.6.0.5 http://personales.ya.com/cdcatalogueitor
#
DISCID=e40e030f
DTITLE=Varios - Divas Brasil Cd 2
DYEAR=2003
DGENRE=
TTITLE0=Vanessa Da Mata                     Nao Me Deixe Só
TTITLE1=Lilian Viera                                Treasure
TTITLE2=Didá Banda Femenina              Filhos Do Tempo
TTITLE3=Paula Lima                                Quero Ver Vocè No Baile
TTITLE4=Vania Abreu                              Samba Reggae De Rasteira
TTITLE5=Zelia Duncan                            Código De Acceso
TTITLE6=Cibelle                                       No Prego
TTITLE7=Bebel Gilberto                           Samba De Bençao
TTITLE8=Adriana Calcanhotto                 Vámbora
TTITLE9=Cassia Eller                               Por Enquanto
TTITLE10=Simone                                     Tô Que Tô
TTITLE11=Ana Carolina                             Ela é Bamba
TTITLE12=Andrea Marquee                       Zumbi
TTITLE13=Daniela Mercury                       O Canto Da Cidade
TTITLE14=Paula Morelenbaum                  As Praias Desertas
EXTD=
EXTT0=
EXTT1=
EXTT2=
EXTT3=
EXTT4=
EXTT5=
EXTT6=
EXTT7=
EXTT8=
EXTT9=
EXTT10=
EXTT11=
EXTT12=
EXTT13=
EXTT14=
PLAYORDER=
